<svg id="Layer_1" data-name="Layer 1" xmlns="http://www.w3.org/2000/svg" viewBox="0 0 552.94 367.92"><defs><style>.cls-1{fill:#c5def3;}.cls-2{fill:#3889c8;}.cls-2,.cls-7{opacity:0.6;}.cls-13,.cls-3,.cls-5{fill:#fff;}.cls-4{fill:#4cba8f;}.cls-16,.cls-5{opacity:0.4;}.cls-6{fill:#01918b;}.cls-10,.cls-14,.cls-16,.cls-7{fill:#0c1a3b;}.cls-8{fill:#f9bc14;}.cls-9{fill:#f1951f;}.cls-10,.cls-13{opacity:0.3;}.cls-11{fill:#f39091;}.cls-12{fill:#ee6e76;}.cls-15{fill:#55164a;}.cls-17{fill:#e83e4d;}.cls-18{fill:#0b7777;}.cls-19{fill:none;stroke:#ee6e76;stroke-linecap:round;stroke-linejoin:round;stroke-width:2.75px;}.cls-20{fill:#93415d;}</style></defs><title>hero-img3</title><path class="cls-1" d="M248.62,173.32s5.93,42.77,7.42,64.15l-31.13,11.76s-15.37-37.33-17.23-71.64S241.1,148.52,248.62,173.32Z"/><path class="cls-2" d="M234.16,243.05a20.73,20.73,0,0,0,13.3-21.57c-2.29-21.7-6-48.16-6-48.16-3.32-10.94-12-18.06-20.58-19.67-7.87,1.63-14.06,9.06-13.25,23.94,1.58,29.23,13,60.64,16.3,69.3Z"/><path class="cls-3" d="M222.82,159.74c12.44,30.87,5.53,56.74-.26,70.27a31,31,0,0,0-.76,22.5c8.07,22.92,24.32,73.5,26.82,115.41H98.93s-2.63-29.28,11.58-73.62A125.2,125.2,0,0,0,116.08,247l-5.69-78.17Z"/><path class="cls-1" d="M248.62,367.92c-2.5-41.91-18.75-92.49-26.82-115.41a31,31,0,0,1,.76-22.5c5.79-13.53,12.7-39.4.26-70.27l-29.36,2.37c2.92,34.08-2.15,48.17-7.27,68-2,7.7-1.5,20.16,1.07,27.69.89,2.6,1.84,5.44,2.84,8.48l-32.26,13.85v12.73a79.78,79.78,0,0,0,14.34,3.95,43.56,43.56,0,0,1,35.16,34.37,285.19,285.19,0,0,1,4.92,36.78Z"/><path class="cls-2" d="M243.48,367.92h5.14c-2.3-38.44-16.15-84.15-24.65-109.15-10.73,4.29-24,24.43-24,24.43C228.27,301.65,239.33,343.47,243.48,367.92Z"/><path class="cls-1" d="M83.66,185.17s-6,42,.3,69.29l31.93-10.13s6.3-44.43,3.17-67.53S87.83,167.35,83.66,185.17Z"/><path class="cls-2" d="M119.14,212.86C111.59,216.73,99.86,224.79,88,241l8.54,3.29,19.91-4C117.11,234.89,118.33,224.4,119.14,212.86Z"/><path class="cls-4" d="M215.58,30.27a17.74,17.74,0,0,0-9.19-8.76c-9.67-4.09-29.88-10-48.69,1.25-25.91,15.5-12.73,57.83-9.49,68.71S142,109.28,122.3,119s-46.5,25.38-38.64,66.17c0,0,25.69-9.95,68.25-1.85s60.62-16.06,96.71-10c0,0-.92-30.26-20.59-39.75s-27.65-19.08-27.59-36l7.89-29.7S225.73,52,215.58,30.27Z"/><path class="cls-5" d="M164.29,22.76a45.74,45.74,0,0,1,20.82-6.4,46.94,46.94,0,0,0-27.41,6.4c-25.91,15.5-12.73,57.83-9.49,68.71S142,109.28,122.3,119s-46.5,25.38-38.64,66.17A55.54,55.54,0,0,1,90,183.34c-6.72-39.42,19.58-54.77,38.94-64.34,9.28-4.59,16.28-8.56,20.75-12.61a4.68,4.68,0,0,1,6.34.08l6.43,6a.53.53,0,0,0,.86-.58c-1.08-2.66-3-7.44-5.25-12.79a125.91,125.91,0,0,1-8-26.85C147.12,55.35,147,33.09,164.29,22.76Z"/><path class="cls-6" d="M200.53,100.64c-.06-1-.09-2-.09-3.1l7.89-29.7h0s16.41-15,8-35.73a10.08,10.08,0,0,0-9.07-3.22h-.09c-20.61,11.06-32,17.47-44.6,33.19a100.37,100.37,0,0,0,15.57,56.48,99.86,99.86,0,0,1,13.72,31.84,92,92,0,0,1,2,31.15c7.28-1.88,14.12-4.19,21.12-6l1.17-.31,1.47-.36,1.57-.37,1.41-.31,1.7-.35,1.36-.25c.62-.12,1.25-.22,1.89-.32l1.21-.19c.92-.13,1.85-.24,2.79-.34l.47,0q1.54-.15,3.12-.24l1.09,0c.75,0,1.5-.05,2.26-.05h1.28c.73,0,1.48,0,2.22.07l1.31.06,2.44.21,1.16.11c1.21.14,2.44.31,3.7.52,0,0,0-.47-.08-1.32,0-.21,0-.44-.06-.7a69.26,69.26,0,0,0-1.19-8.05c-.1-.49-.21-1-.32-1.49-.23-1-.5-2.06-.79-3.13a52.31,52.31,0,0,0-5.61-13.26,35.22,35.22,0,0,0-4.63-6,27.9,27.9,0,0,0-7.91-5.78C209.59,124.68,201.43,115.69,200.53,100.64Z"/><path class="cls-7" d="M209.49,66.65c3.59-3.91,13.87-17.19,6.88-34.54a10.08,10.08,0,0,0-9.07-3.22h-.09c-3.13,1.68-6,3.25-8.77,4.76Z"/><path class="cls-8" d="M202.78,171.09c-14.85,4.44-28.86,8.64-49.44,4.72-38.62-7.34-64.18-.48-70.78,1.66.23,2.46.59,5,1.1,7.7,0,0,25.69-9.95,68.25-1.85s60.62-16.06,96.71-10a61.75,61.75,0,0,0-.91-7.85C229.93,163,216.13,167.09,202.78,171.09Z"/><path class="cls-9" d="M202.78,171.09c-2.8.84-5.57,1.67-8.37,2.43a78.61,78.61,0,0,1-.53,8c3.6-.93,7.1-2,10.55-3s7-2.1,10.56-3h0l1.14-.3h0l1.47-.36h0l1.54-.37h0l1.41-.31h0l1.68-.35h0l.59-.11c.87-.16,1.75-.32,2.63-.45h0l1.21-.19h0c.91-.13,1.84-.24,2.77-.34h0l.47,0h0c1-.09,2-.17,3.08-.23h0l1.09,0h0c.92,0,1.85-.05,2.79-.05h.74c.73,0,1.47,0,2.21.07h0l.83,0c1,0,1.93.13,2.91.23h0l1.16.11h0c1.22.14,2.44.31,3.7.52a61.75,61.75,0,0,0-.91-7.85C229.93,163,216.13,167.09,202.78,171.09Z"/><path class="cls-10" d="M208.33,120.13v0c-4.86-5.4-7.33-11.6-7.8-19.46-.06-1-.09-2-.09-3.1l7.89-29.7h0a29.68,29.68,0,0,0,3.19-3.63l0-.39L178.4,65,174.59,98.7C182.57,114.66,208.33,120.13,208.33,120.13Z"/><path class="cls-11" d="M211.55,41.78c2.22,17.06-2.09,33.77-2.09,33.77s-3,16.33-9,22-23.25,3.76-25.85,1.16c0,0-10.76-20-12-36.61,0,0,13-18.48,28.11-25.21S211.2,39.16,211.55,41.78Z"/><path class="cls-12" d="M178.76,91.57c-7.43-17.5-1.69-38,14.1-48.58a43.62,43.62,0,0,1,6.54-3.66,25.93,25.93,0,0,1,8.93-2.41c-3.09-2.47-8.63-4-17.61,0-15.09,6.73-28.11,25.21-28.11,25.21,1.22,16.65,12,36.61,12,36.61,1,1,4.5,2,8.63,2.36C182.92,100.5,181,96.83,178.76,91.57Z"/><path class="cls-13" d="M211.55,41.78c-.28-2.1-3.79-8.28-12.93-7.21,6.2.82,8.71,5.45,8.94,7.21,2.22,17.06-2.09,33.77-2.09,33.77s-2.95,16.33-9,22c-2.53,2.37-7,3.41-11.53,3.64,5.71.27,12.24-.57,15.52-3.64,6.07-5.66,9-22,9-22S213.77,58.84,211.55,41.78Z"/><path class="cls-14" d="M196.32,86.89a10.54,10.54,0,0,1-5,3.34,7.84,7.84,0,0,1-4.48,0,7.93,7.93,0,0,1-3.74-2.46,10.5,10.5,0,0,1-2.38-5.55l.13-.3a72.59,72.59,0,0,0,7.66,2.71c2.6.78,5.23,1.42,7.89,1.94Z"/><path class="cls-14" d="M178.11,61.25c-.13,2.45,1.2,4.52,3,4.62s3.35-1.81,3.49-4.26-1.2-4.51-3-4.61S178.25,58.8,178.11,61.25Z"/><path class="cls-14" d="M198,62.78c-.14,2.45,1.2,4.52,3,4.62s3.35-1.8,3.49-4.25-1.2-4.52-3-4.62S198.16,60.33,198,62.78Z"/><path class="cls-12" d="M193.21,54c.6,3,.84,5.56,1.22,8a46.58,46.58,0,0,0,1.44,6.66,24.62,24.62,0,0,0,1.11,3c.1.25.22.47.33.7l.18.34,0,.08.2.32a4.68,4.68,0,0,1,.35.71,4.59,4.59,0,0,1,.1,3.1,4.38,4.38,0,0,1-1.93,2.4,3.18,3.18,0,0,1-1.12.44l-.65.1a10.26,10.26,0,0,1-1.23.07,12.4,12.4,0,0,1-2.31-.22,12.69,12.69,0,0,1-4.21-1.6l0-.2a26.72,26.72,0,0,0,4-.08,12.35,12.35,0,0,0,3.89-.92,1.44,1.44,0,0,0,.49-1.78,6.66,6.66,0,0,0-.57-.82c-.18-.28-.38-.55-.54-.84a16.9,16.9,0,0,1-1.63-3.66,22.59,22.59,0,0,1-.87-7.93A35.17,35.17,0,0,1,193,53.9Z"/><path class="cls-12" d="M174.3,70.48c-.17,1.4,1.49,2.74,3.69,3s4.12-.67,4.28-2.07-1.48-2.75-3.69-3S174.46,69.07,174.3,70.48Z"/><path class="cls-12" d="M200.81,73.13c.13,1.3,1.89,2.19,3.93,2s3.59-1.42,3.46-2.72-1.89-2.19-3.93-2S200.68,71.84,200.81,73.13Z"/><path class="cls-15" d="M162.61,62.09c17.7-24,49.31-16.69,49.31-16.69s2.23-9.43-4.71-16.5C207.21,28.9,181.7,31.72,162.61,62.09Z"/><path class="cls-16" d="M179,48.79A65.85,65.85,0,0,1,199,37,9.82,9.82,0,0,1,212,44.64v.09c.36-2.25,1-9.87-4.83-15.83,0,0-25.51,2.82-44.6,33.19A41.45,41.45,0,0,1,179,48.79Z"/><path class="cls-15" d="M177,158l-52.09,10.16a4.68,4.68,0,0,0-2.58,1.45l-9.71,10.67,80.44,77.29a7.84,7.84,0,0,1,5.43-4.38,1.52,1.52,0,0,0,1.12-1.83Z"/><path class="cls-1" d="M193.88,261.2a14.77,14.77,0,0,1,4.67-8.24L176,159.74,123.92,169.9l-9.11,10.31"/><path class="cls-2" d="M169.27,169.9l16,82.48,8.61,8.82a14.77,14.77,0,0,1,4.67-8.24L176,159.74C169.5,163.88,169.27,169.9,169.27,169.9Z"/><polygon class="cls-17" points="169.27 169.9 112.64 180.29 137.81 274.99 193.88 261.2 169.27 169.9"/><path class="cls-15" d="M127.39,184.64l31.91-5.86a5.42,5.42,0,0,0,6.23,3.93l18.36,68.1a5.42,5.42,0,0,0-3.93,6.66l-31.71,7.8a5.75,5.75,0,0,0-6.93-4.11l-18.45-69.38A5.76,5.76,0,0,0,127.39,184.64Z"/><path class="cls-11" d="M199,217.44c2.9-5.09-1.15-7.91-1.15-7.91,1.62-5.62-2.43-6.9-2.43-6.9s-.23-4.85-2.66-5.09c-2-.18-10.76,4.28-10.76,4.28s4.38-5.4,5.21-6.71-.1-5.75-1-5.43c-1.58.54-9.6,5.9-15.84,9.6-2,1.21-4.4,15.62-7.73,18.16l5.64,22.67c13.31-1.85,31.12-12,32.05-16.69S199,217.44,199,217.44Z"/><path class="cls-12" d="M162.58,217.44l5.64,22.67a43.8,43.8,0,0,0,5.93-1.27,165,165,0,0,0-3.84-39.56C168.27,200.49,165.91,214.9,162.58,217.44Z"/><path class="cls-3" d="M88,241c29.27-20.08,59-13.78,75.7-26.61,0,0,8.15,14.06,8.15,30.54,0,0-39.56,19.07-60.38,22a68.07,68.07,0,0,1-7,.66A21.16,21.16,0,0,1,84,254.46h0A11.19,11.19,0,0,1,88,241Z"/><path class="cls-1" d="M163.66,214.43C147,227.26,117.23,221,88,241c28.68-15.92,60.74-10.35,79.5-18.24A62.2,62.2,0,0,0,163.66,214.43Z"/><path class="cls-8" d="M171.81,245c0-16.48-8.15-30.54-8.15-30.54a35.76,35.76,0,0,1-9.42,5c6,9.47,7.82,21.38,8.32,29.76C168.18,246.72,171.81,245,171.81,245Z"/><path class="cls-9" d="M161.16,216.13c-.56.36-1.14.69-1.74,1l-.36.2a41.13,41.13,0,0,1-4.82,2.13h0a43.73,43.73,0,0,1,3.22,6.23,52.35,52.35,0,0,0,10-2.9h0a62.39,62.39,0,0,0-3.8-8.36q-1,.73-2,1.38C161.51,215.92,161.34,216,161.16,216.13Z"/><path class="cls-12" d="M154.5,288.09c-5.39-1.26-4.75-5.88-4.75-5.88-4.95-2.49-3.23-6.12-3.23-6.12s-3.23-3.29-1.83-5.12c1.13-1.48,9.89-4.73,9.89-4.73s-6.57-.43-8-.69-3.94-3.77-3.11-4.22c1.4-.75,10.27-2.88,16.86-4.84,2.15-.64,13.67,7,17.58,6.3L190,281.28c-9.84,8.05-28.35,13.89-32.19,11.54S154.5,288.09,154.5,288.09Z"/><path class="cls-10" d="M177.9,262.79,190,281.28a45.15,45.15,0,0,1-4.69,3.3,156.28,156.28,0,0,1-25-28.09C162.47,255.85,174,263.47,177.9,262.79Z"/><path class="cls-3" d="M242.24,226.1c-32.76,7.43-47.5,32.16-67.12,35.5,0,0,4.53,14.7,16,25.29,0,0,38.66-15.24,54.1-27.81a64.69,64.69,0,0,0,5-4.43,20,20,0,0,0,4-22.7h0A10.57,10.57,0,0,0,242.24,226.1Z"/><path class="cls-8" d="M191.1,286.89c-11.45-10.59-16-25.29-16-25.29a34,34,0,0,0,9.55-3.3c2.75,10.22,9.83,19.17,15.33,24.9C194.64,285.49,191.1,286.89,191.1,286.89Z"/><path class="cls-9" d="M177.9,261c.61-.17,1.22-.36,1.82-.57l.37-.12a41.38,41.38,0,0,0,4.58-2h0a41.48,41.48,0,0,0,2.26,6.24,48.92,48.92,0,0,1-8.45,5.08h0a59.5,59.5,0,0,1-3.36-8c.75-.12,1.49-.29,2.22-.48Z"/><polygon class="cls-14" points="398.6 302.62 403.73 367.92 267.65 367.92 275.57 302.62 398.6 302.62"/><path class="cls-6" d="M287.24,122.3C249.29,158.27,242,251,242,251l52-4.14,15.22-91.73Z"/><path class="cls-4" d="M287.24,122.3C249.29,158.27,242,251,242,251l14-1.11C256,229.72,258.16,156.46,287.24,122.3Z"/><path class="cls-18" d="M400,122.3c28.65,34.48,36.46,109.32,36.46,109.32L412.2,267.31s-11.86-11.48-26.74-43.7S369,155.08,369,155.08Z"/><path class="cls-10" d="M430.73,197.77c-9.8.5-22.79-5.79-30.77-37.27L371,173.65c2.1,13.46,6.27,32.31,14.42,50,14.88,32.22,26.74,43.7,26.74,43.7l24.22-35.69S434.9,217,430.73,197.77Z"/><path class="cls-12" d="M479.86,167.73s19.62-12.59,22.91-13.38,4.41,5.16,4,7.39-12.9,14.83-12.9,14.83L506,170.5a2.44,2.44,0,0,1,3.44,1.54h0a2.42,2.42,0,0,1-.82,2.52l-9.86,8,8.44-2.59a2.09,2.09,0,0,1,2.69,1.75h0a2.08,2.08,0,0,1-1,2l-10.93,6.49s-6.22,9.52-12.48,11.77-11,2.94-15.31,6.1L461.82,197A63.51,63.51,0,0,1,479.86,167.73Z"/><path class="cls-10" d="M474.7,173.12A62.39,62.39,0,0,0,461.82,197l8.29,11.11a19.69,19.69,0,0,1,2.7-1.67,14.25,14.25,0,0,0,7.71-12.83,64.47,64.47,0,0,0-2.41-17.77Z"/><path class="cls-12" d="M455.88,190.2c5.73-5.81,8.72-13.79,10.05-18.36a9.38,9.38,0,0,1,4.52-5.58l14.38-7.85a1.66,1.66,0,0,1,2.45,1.33,8.39,8.39,0,0,1-1,4.25c-1.26,2.49-3.85,4.87-5.86,6.46a6.09,6.09,0,0,0-2.26,5.37c.42,4.18.55,11.23-2.55,15.26-4.6,6-13.74,5.9-13.74,5.9Z"/><path class="cls-11" d="M487.28,159.74a8.37,8.37,0,0,1-1.59,4.08c-1.56,2.31-4.44,4.33-6.64,5.66a6,6,0,0,0-2.93,5c-.12,4.2-.9,11.2-4.49,14.8-4,4-10,4.3-12.84,4.2l3,3.47s9.14.09,13.74-5.9c3.1-4,3-11.08,2.55-15.26a6.09,6.09,0,0,1,2.26-5.37c2-1.59,4.6-4,5.86-6.46A8.39,8.39,0,0,0,487.28,159.74Z"/><path class="cls-6" d="M405.86,227.65c13.12-18.64,47.73-43,47.73-43s17.69,12.31,25.6,27c0,0-41.73,58.66-56.73,61S390,250.12,405.86,227.65Z"/><path class="cls-18" d="M450.62,248.25c-17.42,4.79-40.85,7.63-50.48-7.43-3.4,17.94,10.24,33.71,22.32,31.85C428.79,271.7,439.9,260.67,450.62,248.25Z"/><path class="cls-4" d="M407.41,228.44c10.32-11.41,38.71-26.83,56.11-35.67a110.93,110.93,0,0,0-9.93-8.08S419,209,405.86,227.65a33.8,33.8,0,0,0-5.72,13.17A33.85,33.85,0,0,1,407.41,228.44Z"/><path class="cls-8" d="M453.59,184.69s-3.93,2.76-9.62,7.12a199,199,0,0,1,26.45,31.77c5.3-7,8.77-11.87,8.77-11.87C471.28,197,453.59,184.69,453.59,184.69Z"/><path class="cls-9" d="M453.44,184.8l-.09.06-.43.31,0,0c-1.14.82-3.6,2.6-6.86,5.06h0l-2,1.55q3.86,3.8,7.19,7.42c4.43-2.38,8.65-4.57,12.36-6.46a110.93,110.93,0,0,0-9.93-8.08l0,0Z"/><path class="cls-4" d="M376,112.14A86.87,86.87,0,0,1,400,122.3V234.17l7.47,116.44-63.31-1.49-4.42-20.83-5.77,22.32s-43.71-2.23-69-7.81l16.74-138,5.58-82.51s22.94-11.9,39.19-14.38S376,112.14,376,112.14Z"/><path class="cls-6" d="M400,122.3A86.87,86.87,0,0,0,376,112.14s-8.93-1.79-19.79-3.18L350,144.38l-1,10.7s-7.07,141.21-9.3,173.21l4.42,20.83,63.31,1.49L400,234.17Z"/><path class="cls-8" d="M347.7,326.59a8.19,8.19,0,0,0-15.93-.35L327.69,342c-13.08-.85-42.45-3.13-61-7.23l-.78-.13-1,8.13c25.3,5.58,69,7.81,69,7.81l5.77-22.32,4.42,20.83,63.31,1.49-.53-8.2-56.12-1.32Z"/><path class="cls-9" d="M406.9,342.41l-56.12-1.32-3.08-14.5a8.17,8.17,0,0,0-7.47-6.45c-.2,3.18-.38,5.93-.53,8.15l4.42,20.83,63.31,1.49Z"/><path class="cls-8" d="M317.72,109.9c4.65,23.37,25.75,40.69,26.65,41.42l4.63,3.76,5.25-2.85c16.73-9.07,28.57-33.54,29.86-36.3l.51-1.07c-2.62-1-5.49-1.91-8.59-2.72,0,0-33.36-6.7-49.6-4.22A70.77,70.77,0,0,0,317.72,109.9Z"/><path class="cls-9" d="M350,144.38l-1,10.7,5.25-2.85c16.73-9.07,28.57-33.54,29.86-36.3l.51-1.07-1.9-.68-.33-.11q-.84-.3-1.71-.57l-.94-.3-1.29-.39c-.79-.23-1.6-.46-2.42-.67,0,0-8.93-1.79-19.79-3.18Z"/><path class="cls-11" d="M331.88,237a62.82,62.82,0,0,1,16-8.31c5-1.57,12.87-5.1,16.74-6,2.39-.53,4,2.93,3,6.23s-9.35,9.08-9.35,9.08,21,.3,24.36.56c7.26.56,5.77,25.11-9.1,28.68-11.9,2.86-27.91,3.51-40.44,0h-9.67l.87-31.28Z"/><path class="cls-19" d="M366.23,245.79a95.11,95.11,0,0,0,20-1.46"/><path class="cls-19" d="M386.5,251.35a118.63,118.63,0,0,1-21.38,2.53"/><path class="cls-19" d="M384.36,258a78.5,78.5,0,0,1-19.24,3.22"/><path class="cls-12" d="M347.88,228.71a62.82,62.82,0,0,0-16,8.31l-7.56-1-.87,31.28h9.67a60.3,60.3,0,0,0,7.5,1.57,84.39,84.39,0,0,1,14.55-42.83C352.57,227.05,350,228.05,347.88,228.71Z"/><path class="cls-4" d="M254.5,229.75c24.23-9.65,82.05,1.87,82.05,1.87l-2.62,40.12s-54.87,8.18-77.2,1.86S240.36,235.37,254.5,229.75Z"/><path class="cls-5" d="M335.9,241.59l.65-10s-57.82-11.52-82.05-1.87C271,225.47,310.45,234.67,335.9,241.59Z"/><path class="cls-8" d="M319.1,273.6c8.82-1,14.83-1.86,14.83-1.86l2.62-40.12s-6.11-1.22-15.2-2.53A147.76,147.76,0,0,0,319.1,273.6Z"/><path class="cls-9" d="M319.9,237.45c5.68,1.39,11.1,2.81,16,4.14l.65-10h-.08l-.51-.1h0l-.44-.09h-.07l-.51-.09-.08,0-2.45-.44h0l-1-.18h0l-2.38-.4h-.05l-1.24-.2-.11,0-2.87-.45-.13,0-1.34-.2-.3-.05-1.37-.2-.16,0C320.77,232,320.29,234.73,319.9,237.45Z"/><path class="cls-15" d="M323.18,229.36l-4.54-.65c-9.48,0-26.65-4.39-26.65-4.39h0a43.93,43.93,0,0,0-12.89,1.58C249.88,244.42,251,314.77,251,314.77s9.18,6.2,25.79,1.24a42.37,42.37,0,0,1,34-.93,18,18,0,0,0,14.33-1.86S312.72,268.88,323.18,229.36Z"/><path class="cls-20" d="M323.34,305.35a18,18,0,0,1-13.34,1.3,42.37,42.37,0,0,0-34,.93c-13.45,4-22,.72-24.8-.68-.18,4.89-.13,7.87-.13,7.87s9.18,6.2,25.79,1.24a42.37,42.37,0,0,1,34-.93,18,18,0,0,0,14.33-1.86S324.37,310.32,323.34,305.35Z"/><path class="cls-17" d="M318.64,228.71c-13.79,25.54-3.85,93.56-3.85,93.56s-32.35,7.3-47.73,2.84c0,0-8.64-73.36,17.41-100.31C284.47,224.8,299.52,219.84,318.64,228.71Z"/><path class="cls-8" d="M266.25,315.42c.38,6,.81,9.69.81,9.69,15.38,4.46,47.73-2.84,47.73-2.84s-.56-3.85-1.23-10C308.15,313.31,281.57,318.3,266.25,315.42Z"/><path class="cls-12" d="M370.33,83.48v25.68l5.7,3s-11.41,24.31-26,32.24c0,0-19.59-15.87-23.56-36.46l7.44-2.35L336,81.63Z"/><path class="cls-10" d="M370.33,95.39V83.48L336,81.63l-2.07,23.27c3.81,5.81,9,9.95,15.81,8.11C359.88,110.26,366.5,102,370.33,95.39Z"/><path class="cls-12" d="M382,56.34s6.95-4.57,9.43,3.54S384,80.39,373.3,76.67Z"/><path class="cls-12" d="M323.45,57.82s-2-6.79-10.42-4.76-2.72,25.85,13.4,21.38Z"/><path class="cls-11" d="M321.47,35.47s-4.22,29.3,5.7,46.91,21.08,18.52,21.08,18.52,15.88,3,25.3-17.42S386.94,47.41,385,36.74,331.14,9.64,321.47,35.47Z"/><path class="cls-14" d="M340.63,75.69c.74.3,1.45.65,2.2.9a20.65,20.65,0,0,0,2.29.67,19.64,19.64,0,0,0,4.71.56,19.24,19.24,0,0,0,4.72-.57,16.59,16.59,0,0,0,4.42-1.7l.2.31a8.83,8.83,0,0,1-3.38,6.5,9.53,9.53,0,0,1-6,2.07,9.38,9.38,0,0,1-5.93-2A9.21,9.21,0,0,1,340.47,76Z"/><path class="cls-14" d="M365.43,51.31c.07,2.78-1.52,5.06-3.55,5.11s-3.71-2.16-3.78-4.94,1.53-5.06,3.55-5.11S365.37,48.54,365.43,51.31Z"/><path class="cls-14" d="M341.26,51.31c.06,2.78-1.53,5.06-3.55,5.11s-3.72-2.16-3.78-4.94,1.52-5.06,3.55-5.11S341.19,48.54,341.26,51.31Z"/><path class="cls-12" d="M349.62,43.93a28.81,28.81,0,0,1,1.66,8.81,26.1,26.1,0,0,1-1.23,8.86,19.1,19.1,0,0,1-1.88,4.08c-.21.31-.42.62-.66.91a5.35,5.35,0,0,0-.69.88,1.62,1.62,0,0,0,.42,2A14.7,14.7,0,0,0,351.47,71a28.84,28.84,0,0,0,4.45.59v.23A14.4,14.4,0,0,1,351,73.05a14.16,14.16,0,0,1-2.6,0,11,11,0,0,1-1.36-.23c-.23-.05-.47-.12-.7-.19a2.54,2.54,0,0,1-.38-.11,4.39,4.39,0,0,1-.73-.41,5,5,0,0,1-2-2.83,5.09,5.09,0,0,1,.32-3.45A4.6,4.6,0,0,1,344,65c.08-.12.17-.24.26-.35s.22-.25.19-.24a.88.88,0,0,1,.11-.24l.3-.62a28.9,28.9,0,0,0,1.25-3.26A61.48,61.48,0,0,0,348,52.83c.51-2.66.87-5.47,1.41-8.82Z"/><path class="cls-13" d="M352.22,100.9s-11.16-.91-21.08-18.52-5.71-46.91-5.71-46.91c3.58-9.56,12.94-13.32,23.4-13.73-12-.43-23.34,3-27.36,13.73,0,0-4.22,29.3,5.7,46.91s21.08,18.52,21.08,18.52a16.25,16.25,0,0,0,4.28,0Z"/><path class="cls-12" d="M385,36.74c-1.27-6.81-22.88-16-40.84-15,16.54.88,33.32,7.8,34.45,13.91,2,10.66-1.3,27.34-10.72,47.79-6,13-14.63,16.53-20.09,17.35a4.38,4.38,0,0,0,.49.07s15.88,3,25.3-17.42S386.94,47.41,385,36.74Z"/><path class="cls-15" d="M333.22,91.12c9,5,12.71,1.71,14.15-1a4.69,4.69,0,0,1,4.11-2.46h0a4.59,4.59,0,0,1,4.31,2.85,6,6,0,0,0,2.88,3.23c3.72,2,10.29-2.48,10.29-2.48s-5.7,12.4-20.34,11.53S333.22,91.12,333.22,91.12Z"/><path class="cls-15" d="M378.76,33c-4.22,18,2.88,30.09,2.88,30.09s5.8-14.47,6.79-23.64S383.28,13.93,356.93,11s-44.44,16.61-36.35,47.61c0,0,8.57-13,11.05-28C331.63,30.54,358.42,22.9,378.76,33Z"/><path class="cls-3" d="M318.63,43.87c38.88-18.79,68.25,3.45,68.25,3.45s14.76-41.39-31-42.14C313.09,4.49,318.63,43.87,318.63,43.87Z"/><path class="cls-1" d="M355.88,5.18c-2.19,0-4.22.06-6.17.22,31,2.57,30,26.1,27.85,36.74a51.66,51.66,0,0,1,9.32,5.18S401.64,5.93,355.88,5.18Z"/><path class="cls-1" d="M386.88,47.32a46.85,46.85,0,0,0,2.23-12.6c-5.79-4.09-17.48-10.25-35.53-10.38-15.85-.11-27.19,2.47-33.89,4.62a43.28,43.28,0,0,0-1.06,14.91C357.51,25.08,386.88,47.32,386.88,47.32Z"/><path class="cls-2" d="M386.9,47.25l.15-.47v0a47.69,47.69,0,0,0,2.05-12,52.48,52.48,0,0,0-10.88-5.82,43.13,43.13,0,0,1-.67,13.24c.72.32,1.39.63,2,1l.14.07c1.94,1,3.52,1.84,4.69,2.55l0,0c.79.48,1.38.87,1.79,1.15l0,0,.42.29,0,0,.14.09v-.07Z"/></svg>